<svg
  version="1.1"
  id="svg2"
  width="570"
  height="570"
  viewBox="0 0 570 570"
  xmlns="http://www.w3.org/2000/svg"
>
  <defs id="defs6"/>
  <g id="g8" transform="matrix(1.3333333,0,0,-1.3333333,-381.17332,818.82665)">
    <g id="g10" transform="scale(0.1)">
      <path
        d="m 6601.3,3632.8 -553.19,1101.82 c 0,0 -754.36,-118.86 -1033.25,-635.49 -278.89,516.63 -1033.24,635.49 -1033.24,635.49 L 3428.42,3632.8 c 822.7,200.66 1446.3,-370.11 1586.44,-512.61 140.14,142.5 763.74,713.27 1586.44,512.61"
        fill="current"
        style="fill-opacity:1;fill-rule:nonzero;stroke:none"
        id="path12"
      />
      <path
        d="m 5014.03,2148.39 c -733.8,0 -1367.87,426.88 -1667.51,1045.83 l -322.72,136.83 c 0,0 905.24,406.9 1961.34,-338.31 0,0 -713.21,861.8 -1682.45,525.76 L 3901.6,4716.34 3243.25,3500.21 3865.03,4716.34 3218.75,3545.22 c -0.26,1.02 -0.5,2.06 -0.76,3.09 l 601.32,1168.03 -620.85,-1081.13 c -23.58,117.94 -36.04,239.9 -36.04,364.79 0,1022.61 829,1851.61 1851.61,1851.61 1022.62,0 1851.61,-829 1851.61,-1851.61 0,-137.55 -15.1,-271.55 -43.58,-400.53 l -641.37,1116.87 619.86,-1204.04 -0.37,-1.37 -665.21,1205.41 621.78,-1216.13 -658.35,1216.13 598.91,-1197.84 c -969.24,336.04 -1682.45,-525.76 -1682.45,-525.76 1056.02,745.15 1961.19,338.38 1961.34,338.32 v -0.01 L 6688.58,3209.11 C 6391.94,2582.14 5753.68,2148.39 5014.03,2148.39 Z M 5000,6141.2 c -1182.55,0 -2141.2,-958.65 -2141.2,-2141.2 0,-1182.55 958.65,-2141.2 2141.2,-2141.2 1182.55,0 2141.2,958.65 2141.2,2141.2 0,1182.55 -958.65,2141.2 -2141.2,2141.2"
        fill="current"
        style="fill-opacity:1;fill-rule:nonzero;stroke:none"
        id="path14"
      />
    </g>
  </g>
</svg>
